<?xml version="1.0" standalone="no"?>
<!DOCTYPE svg PUBLIC "-//W3C//DTD SVG 20010904//EN"
 "http://www.w3.org/TR/2001/REC-SVG-20010904/DTD/svg10.dtd">
<svg version="1.0" xmlns="http://www.w3.org/2000/svg"
 width="192.000000pt" height="192.000000pt" viewBox="0 0 192.000000 192.000000"
 preserveAspectRatio="xMidYMid meet">
<metadata>
Created by potrace 1.11, written by Peter Selinger 2001-2013
</metadata>
<g transform="translate(0.000000,192.000000) scale(0.100000,-0.100000)"
fill="#000000" stroke="none">
<path d="M860 1910 c-275 -27 -539 -187 -699 -423 -48 -71 -105 -200 -132
-297 -33 -121 -33 -337 -1 -460 96 -354 348 -606 703 -702 122 -32 338 -32
459 1 360 99 615 360 701 718 32 132 30 314 -6 448 -46 176 -133 323 -266 451
-85 81 -139 120 -235 168 -161 80 -343 113 -524 96z m353 -64 c402 -120 667
-472 667 -885 0 -255 -85 -465 -264 -649 -104 -107 -277 -214 -384 -237 -31
-6 -33 -5 -30 15 2 17 17 27 64 44 115 42 242 126 331 218 49 51 143 186 143
205 0 35 -300 144 -495 179 -125 23 -442 26 -555 6 -161 -29 -292 -68 -438
-130 -65 -27 -82 -38 -77 -51 21 -56 83 -139 165 -221 100 -100 158 -139 286
-195 60 -26 80 -40 82 -56 3 -19 1 -21 -25 -15 -15 4 -65 25 -109 45 -211 99
-356 244 -455 456 -111 236 -112 525 -4 761 120 262 355 457 627 519 40 9 78
19 83 21 6 2 75 2 155 0 121 -3 160 -8 233 -30z m-95 -1121 c122 -8 342 -55
342 -73 0 -4 -22 -35 -49 -68 -133 -164 -368 -246 -574 -200 -142 32 -275 118
-355 229 l-33 46 53 16 c129 38 361 66 483 59 28 -2 87 -6 133 -9z m-665 -113
c36 -55 114 -130 175 -169 95 -61 174 -85 296 -91 132 -6 192 6 305 60 84 40
175 118 242 205 l24 33 99 -40 c55 -21 104 -44 109 -49 7 -7 -4 -32 -33 -76
-23 -36 -45 -65 -49 -65 -3 0 -15 7 -25 15 -29 22 -60 18 -93 -9 -24 -21 -36
-24 -72 -19 -51 7 -85 -9 -101 -47 -9 -22 -16 -26 -40 -22 -18 3 -43 -3 -63
-15 l-33 -20 4 30 c4 22 1 28 -9 25 -11 -4 -15 -39 -19 -154 -5 -145 -6 -149
-27 -152 -23 -3 -23 -3 -23 137 0 119 -2 141 -15 141 -13 0 -15 -23 -15 -145
l0 -145 -35 0 -35 0 0 140 c0 118 -2 140 -15 140 -13 0 -15 -23 -15 -146 l0
-145 -32 3 -33 3 -3 143 c-2 117 -5 142 -17 142 -13 0 -15 -23 -15 -140 l0
-140 -30 0 -30 0 0 145 c0 122 -2 145 -15 145 -13 0 -15 -22 -15 -140 0 -147
-1 -150 -44 -134 -14 5 -16 28 -16 155 0 126 -2 149 -15 149 -9 0 -15 -9 -15
-25 0 -25 -1 -25 -25 -9 -17 11 -37 15 -60 11 -30 -5 -35 -3 -35 13 0 41 -88
77 -128 51 -9 -5 -23 2 -42 20 -32 33 -68 37 -105 13 -23 -15 -24 -15 -69 52
-25 38 -42 72 -37 77 10 10 192 86 207 87 6 0 23 -17 37 -38z m-53 -212 c11
-11 20 -27 20 -35 0 -8 6 -15 14 -15 7 0 19 7 26 15 15 18 74 20 88 3 5 -7 13
-28 17 -45 7 -36 15 -39 44 -22 27 18 69 3 86 -31 8 -16 15 -52 15 -80 0 -49
-1 -51 -22 -45 -96 28 -286 149 -352 223 -37 42 24 72 64 32z m1190 5 c32 -38
-231 -226 -362 -259 -28 -6 -28 -6 -28 44 0 55 20 104 45 114 25 9 63 7 70 -4
12 -19 35 -10 35 13 0 58 59 86 108 51 22 -15 42 -12 42 8 0 38 66 62 90 33z"/>
<path d="M770 1825 c-301 -67 -550 -291 -651 -584 -11 -30 -19 -56 -19 -58 0
-1 74 -3 164 -3 l165 0 33 63 c69 130 218 242 368 278 72 17 192 17 258 0 l53
-13 -22 -24 c-21 -22 -49 -35 -110 -48 -18 -4 -29 -14 -33 -31 -7 -27 -40 -45
-82 -45 -20 0 -24 -5 -24 -29 0 -47 -43 -74 -102 -67 -53 7 -100 -10 -118 -43
-18 -34 -12 -41 40 -41 36 0 52 5 59 18 9 16 10 16 16 0 6 -14 19 -18 59 -18
29 0 58 6 65 13 11 10 14 10 18 0 3 -10 47 -13 169 -13 107 0 163 4 159 10 -3
5 5 15 19 22 14 6 26 15 26 20 0 4 5 8 10 8 15 0 12 -21 -7 -42 -15 -17 -14
-18 40 -18 43 0 58 4 66 18 10 16 10 16 11 0 0 -17 17 -18 205 -18 162 0 205
3 205 13 0 30 -44 139 -83 205 -112 192 -290 336 -497 404 -86 28 -109 31
-245 34 -106 3 -169 -1 -215 -11z m450 -53 c169 -56 314 -160 422 -301 50 -66
112 -184 124 -233 l6 -28 -130 0 -129 0 -39 66 c-131 223 -420 338 -673 268
-145 -41 -298 -159 -367 -281 l-29 -53 -132 0 -132 0 14 40 c35 100 100 204
179 287 119 126 243 204 388 242 109 29 112 30 263 27 125 -3 150 -6 235 -34z
m-65 -342 c-3 -5 -16 -10 -28 -9 -20 1 -20 2 3 9 14 4 26 8 28 9 2 1 0 -3 -3
-9z m-75 -75 c-14 -17 -56 -20 -65 -5 -3 6 4 10 18 10 14 0 31 7 38 16 9 11
15 12 17 5 2 -7 -2 -18 -8 -26z m150 -35 c-24 -15 -37 -11 -16 5 11 8 22 12
25 9 3 -3 -1 -9 -9 -14z m-205 -39 c-15 -48 -77 -69 -105 -36 -11 13 -7 15 24
15 30 0 40 5 54 30 18 32 38 25 27 -9z m136 -33 c-11 -29 -40 -40 -67 -25 -17
10 -16 12 11 17 18 3 34 14 40 27 13 30 28 13 16 -19z"/>
<path d="M828 1499 c-29 -16 -22 -39 11 -39 35 0 62 27 40 41 -18 11 -30 11
-51 -2z"/>
<path d="M954 1485 c-13 -33 32 -49 57 -19 10 13 10 17 -2 25 -21 13 -49 11
-55 -6z"/>
<path d="M866 1434 c-22 -22 -20 -33 9 -40 25 -6 75 17 75 35 0 24 -62 27 -84
5z"/>
<path d="M742 1424 c-26 -18 -29 -39 -6 -48 19 -7 50 9 64 33 7 15 6 20 -6 25
-22 9 -27 8 -52 -10z"/>
<path d="M627 1403 c-15 -15 -6 -33 17 -33 20 0 36 16 36 36 0 7 -46 5 -53 -3z"/>
<path d="M774 1347 c-34 -30 -27 -57 15 -57 20 0 36 9 51 27 20 26 20 28 4 40
-25 18 -39 16 -70 -10z"/>
<path d="M652 1334 c-27 -18 -30 -54 -4 -54 23 0 62 28 62 44 0 8 -7 17 -16
20 -20 8 -16 9 -42 -10z"/>
<path d="M540 1300 c-21 -38 13 -55 43 -22 24 26 21 42 -8 42 -14 0 -29 -8
-35 -20z"/>
<path d="M567 1212 c-25 -27 -21 -34 16 -30 24 2 33 8 35 26 4 28 -27 30 -51
4z"/>
<path d="M482 1208 c-19 -19 -14 -28 13 -28 18 0 25 5 25 20 0 22 -20 26 -38
8z"/>
<path d="M186 1098 c-24 -33 -23 -399 0 -422 20 -21 32 -20 71 4 44 27 49 41
57 158 l7 103 -38 -3 -38 -3 3 -91 c3 -59 0 -94 -7 -98 -8 -5 -11 38 -11 149
0 121 3 156 13 153 6 -3 13 -23 15 -45 3 -39 4 -41 30 -34 25 7 27 12 27 59
-1 65 -23 92 -76 92 -28 0 -42 -6 -53 -22z"/>
<path d="M347 1038 c-10 -117 -9 -328 1 -328 4 0 36 9 70 21 58 19 62 23 62
51 0 29 -1 30 -41 23 l-42 -7 4 158 4 159 -26 3 c-26 3 -26 2 -32 -80z"/>
<path d="M524 1106 c-17 -13 -19 -30 -22 -161 -3 -103 0 -150 8 -161 20 -24
87 -18 115 11 24 23 25 29 25 158 0 117 -2 136 -18 150 -23 21 -81 22 -108 3z
m64 -158 c-2 -78 -7 -113 -15 -116 -10 -3 -13 24 -13 112 0 98 2 116 15 116
13 0 15 -17 13 -112z"/>
<path d="M674 1063 c3 -32 13 -104 22 -160 l17 -103 38 0 c36 0 38 2 44 38 3
20 10 51 14 67 9 30 9 29 10 -10 2 -74 9 -85 52 -85 22 0 39 2 39 5 0 3 9 59
20 123 35 203 35 182 1 182 -34 0 -37 -6 -47 -103 -3 -37 -10 -69 -14 -72 -4
-2 -10 29 -14 71 -9 96 -12 104 -46 104 -28 0 -28 0 -41 -102 -14 -112 -19
-107 -34 35 -7 67 -7 67 -37 67 l-31 0 7 -57z"/>
<path d="M1097 1102 c-14 -15 -17 -40 -17 -130 0 -137 7 -157 59 -173 34 -10
44 -9 66 5 23 15 25 22 25 95 0 73 -2 79 -22 85 -48 13 -50 11 -42 -65 6 -59
4 -71 -7 -67 -11 4 -14 28 -14 106 0 61 4 102 10 102 6 0 11 -10 13 -24 3 -23
35 -41 54 -30 14 9 9 68 -8 92 -20 29 -93 31 -117 4z"/>
<path d="M1276 1104 c-13 -12 -16 -41 -16 -147 0 -149 6 -168 65 -187 30 -10
40 -9 60 4 24 16 25 19 25 146 0 125 -9 177 -33 192 -21 13 -85 9 -101 -8z
m72 -162 c2 -95 0 -112 -13 -112 -13 0 -15 18 -15 116 0 88 3 115 13 112 8 -3
13 -38 15 -116z"/>
<path d="M1437 1113 c-2 -5 -1 -89 2 -187 l6 -180 62 -20 c35 -11 65 -17 68
-14 3 2 2 19 -1 36 -5 26 -12 33 -40 38 l-34 6 0 127 c0 169 -6 201 -36 201
-12 0 -25 -3 -27 -7z"/>
<path d="M1597 1113 c-2 -5 -1 -101 1 -214 4 -204 4 -207 27 -217 13 -6 26 -8
29 -5 3 4 6 45 6 93 l0 87 31 -5 c30 -4 30 -4 27 34 -3 34 -6 39 -30 42 -27 3
-28 6 -28 58 l0 54 35 0 c34 0 35 1 35 40 l0 40 -64 0 c-36 0 -66 -3 -69 -7z"/>
<path d="M612 613 l-20 -23 20 -23 21 -23 23 23 23 23 -23 23 -23 23 -21 -23z"/>
<path d="M1252 613 l-20 -23 20 -23 21 -23 23 23 23 23 -23 23 -23 23 -21 -23z"/>
<path d="M384 586 c-4 -9 -4 -20 0 -23 3 -4 12 -1 18 5 9 9 9 15 0 24 -9 9
-13 7 -18 -6z"/>
<path d="M1514 586 c-8 -22 3 -33 18 -18 9 9 9 15 0 24 -9 9 -13 7 -18 -6z"/>
<path d="M306 573 c-11 -11 -6 -23 9 -23 8 0 15 4 15 9 0 13 -16 22 -24 14z"/>
<path d="M1585 569 c-10 -15 1 -23 20 -15 9 3 13 10 10 16 -8 13 -22 13 -30
-1z"/>
<path d="M435 530 c-4 -6 -3 -16 3 -22 6 -6 12 -6 17 2 4 6 3 16 -3 22 -6 6
-12 6 -17 -2z"/>
<path d="M1455 530 c-9 -15 4 -30 20 -23 8 3 15 9 15 13 0 12 -29 20 -35 10z"/>
<path d="M354 519 c-10 -17 13 -36 27 -22 12 12 4 33 -11 33 -5 0 -12 -5 -16
-11z"/>
<path d="M1534 516 c-8 -22 3 -33 18 -18 9 9 9 15 0 24 -9 9 -13 7 -18 -6z"/>
</g>
</svg>
